<svg xmlns="http://www.w3.org/2000/svg" version="1.1" xmlns:xlink="http://www.w3.org/1999/xlink" xmlns:svgjs="http://svgjs.com/svgjs" width="1920" height="1080" preserveAspectRatio="none" viewBox="0 0 1920 1080"><g mask="url(&quot;#SvgjsMask1038&quot;)" fill="none"><rect width="1920" height="1080" x="0" y="0" fill="url(#SvgjsLinearGradient1039)"></rect><path d="M1920 0L1788.8600000000001 0L1920 102.98z" fill="rgba(255, 255, 255, .1)"></path><path d="M1788.8600000000001 0L1920 102.98L1920 340.46L1513.2800000000002 0z" fill="rgba(255, 255, 255, .075)"></path><path d="M1513.28 0L1920 340.46L1920 690.5999999999999L593.17 0z" fill="rgba(255, 255, 255, .05)"></path><path d="M593.1700000000001 0L1920 690.5999999999999L1920 910.4899999999999L181.7800000000001 0z" fill="rgba(255, 255, 255, .025)"></path><path d="M0 1080L203.23 1080L0 932.04z" fill="rgba(0, 0, 0, .1)"></path><path d="M0 932.04L203.23 1080L417.38 1080L0 627.8z" fill="rgba(0, 0, 0, .075)"></path><path d="M0 627.8L417.38 1080L996.39 1080L0 626.93z" fill="rgba(0, 0, 0, .05)"></path><path d="M0 626.93L996.39 1080L1190.3 1080L0 283.75999999999993z" fill="rgba(0, 0, 0, .025)"></path></g><defs><mask id="SvgjsMask1038"><rect width="1920" height="1080" fill="#ffffff"></rect></mask><linearGradient x1="10.94%" y1="-19.44%" x2="89.06%" y2="119.44%" gradientUnits="userSpaceOnUse" id="SvgjsLinearGradient1039"><stop stop-color="#0e2a47" offset="0"></stop><stop stop-color="#00459e" offset="1"></stop></linearGradient></defs></svg>